# xmcd
#
# Track frame offsets:
#	150
#	12611
#	42659
#	54272
#	76065
#	88398
#	102541
#	125826
#	143620
#	166841
#	198582
#	207793
#	221352
#	242833
#	265132
#
# Disc length: 4244 seconds
#
# Revision: 0
# Processed by: cddbd v1.5PL3 Copyright (c) Steve Scherf et al.
# Submitted via: audiograbber 1.82.01
#
DISCID=d910920f
DTITLE=Livin'Blues - Hell's session and wang dang doodle
DYEAR=1900
DGENRE=Blues
TTITLE0=Waiting on you
TTITLE1=One night blues
TTITLE2=Bowlegged women
TTITLE3=Hell's session
TTITLE4=Big road blues
TTITLE5=Black panther
TTITLE6=Worried dreams
TTITLE7=Big black train
TTITLE8=Wang dang doodle
TTITLE9=I came home at night
TTITLE10=Whiskey and gin
TTITLE11=This is the hour
TTITLE12=When the sun goes down
TTITLE13=Go-go-train
TTITLE14=Spoonful
EXTD=SomeWax Recordings 2003   (SW135-2)
EXTT0=
EXTT1=
EXTT2=
EXTT3=
EXTT4=
EXTT5=
EXTT6=
EXTT7=
EXTT8=
EXTT9=
EXTT10=
EXTT11=
EXTT12=
EXTT13=
EXTT14=
PLAYORDER=
